<svg width="122" height="330" viewBox="0 0 122 330" fill="none" xmlns="http://www.w3.org/2000/svg">
<rect width="17.3333" height="17.3333" rx="8.66667" fill="#414040" fill-opacity="1"/>
<rect x="34.6667" width="17.3333" height="17.3333" rx="8.66667" fill="#414040" fill-opacity="1"/>
<rect x="69.3333" width="17.3333" height="17.3333" rx="8.66667" fill="#414040" fill-opacity="1"/>
<rect x="104" width="17.3333" height="17.3333" rx="8.66667" fill="#414040" fill-opacity="1"/>
<rect y="34.6667" width="17.3333" height="17.3333" rx="8.66667" fill="#414040" fill-opacity="1"/>
<rect x="34.6667" y="34.6667" width="17.3333" height="17.3333" rx="8.66667" fill="#414040" fill-opacity="1"/>
<rect x="69.3333" y="34.6667" width="17.3333" height="17.3333" rx="8.66667" fill="#414040" fill-opacity="1"/>
<rect x="104" y="34.6667" width="17.3333" height="17.3333" rx="8.66667" fill="#414040" fill-opacity="1"/>
<rect y="138.667" width="17.3333" height="17.3333" rx="8.66667" fill="#414040" fill-opacity="1"/>
<rect x="34.6667" y="138.667" width="17.3333" height="17.3333" rx="8.66667" fill="#414040" fill-opacity="1"/>
<rect x="69.3333" y="138.667" width="17.3333" height="17.3333" rx="8.66667" fill="#414040" fill-opacity="1"/>
<rect x="104" y="138.667" width="17.3333" height="17.3333" rx="8.66667" fill="#414040" fill-opacity="1"/>
<rect y="173.333" width="17.3333" height="17.3333" rx="8.66667" fill="#414040" fill-opacity="1"/>
<rect x="34.6667" y="173.333" width="17.3333" height="17.3333" rx="8.66667" fill="#414040" fill-opacity="1"/>
<rect x="69.3333" y="173.333" width="17.3333" height="17.3333" rx="8.66667" fill="#414040" fill-opacity="1"/>
<rect x="104" y="173.333" width="17.3333" height="17.3333" rx="8.66667" fill="#414040" fill-opacity="1"/>
<rect y="69.3333" width="17.3333" height="17.3333" rx="8.66667" fill="#414040" fill-opacity="1"/>
<rect x="34.6667" y="69.3333" width="17.3333" height="17.3333" rx="8.66667" fill="#414040" fill-opacity="1"/>
<rect x="69.3333" y="69.3333" width="17.3333" height="17.3333" rx="8.66667" fill="#414040" fill-opacity="1"/>
<rect x="104" y="69.3333" width="17.3333" height="17.3333" rx="8.66667" fill="#414040" fill-opacity="1"/>
<rect y="104" width="17.3333" height="17.3333" rx="8.66667" fill="#414040" fill-opacity="1"/>
<rect x="34.6667" y="104" width="17.3333" height="17.3333" rx="8.66667" fill="#414040" fill-opacity="1"/>
<rect x="69.3333" y="104" width="17.3333" height="17.3333" rx="8.66667" fill="#414040" fill-opacity="1"/>
<rect x="104" y="104" width="17.3333" height="17.3333" rx="8.66667" fill="#414040" fill-opacity="1"/>
<rect y="277.333" width="17.3333" height="17.3333" rx="8.66667" fill="#414040" fill-opacity="1"/>
<rect x="34.6667" y="277.333" width="17.3333" height="17.3333" rx="8.66667" fill="#414040" fill-opacity="1"/>
<rect x="69.3333" y="277.333" width="17.3333" height="17.3333" rx="8.66667" fill="#414040" fill-opacity="1"/>
<rect x="104" y="277.333" width="17.3333" height="17.3333" rx="8.66667" fill="#414040" fill-opacity="1"/>
<rect y="312" width="17.3333" height="17.3333" rx="8.66667" fill="#414040" fill-opacity="1"/>
<rect x="34.6667" y="312" width="17.3333" height="17.3333" rx="8.66667" fill="#414040" fill-opacity="1"/>
<rect x="69.3333" y="312" width="17.3333" height="17.3333" rx="8.66667" fill="#414040" fill-opacity="1"/>
<rect x="104" y="312" width="17.3333" height="17.3333" rx="8.66667" fill="#414040" fill-opacity="1"/>
<rect y="208" width="17.3333" height="17.3333" rx="8.66667" fill="#414040" fill-opacity="1"/>
<rect x="34.6667" y="208" width="17.3333" height="17.3333" rx="8.66667" fill="#414040" fill-opacity="1"/>
<rect x="69.3333" y="208" width="17.3333" height="17.3333" rx="8.66667" fill="#414040" fill-opacity="1"/>
<rect x="104" y="208" width="17.3333" height="17.3333" rx="8.66667" fill="#414040" fill-opacity="1"/>
<rect y="242.667" width="17.3333" height="17.3333" rx="8.66667" fill="#414040" fill-opacity="1"/>
<rect x="34.6667" y="242.667" width="17.3333" height="17.3333" rx="8.66667" fill="#414040" fill-opacity="1"/>
<rect x="69.3333" y="242.667" width="17.3333" height="17.3333" rx="8.66667" fill="#414040" fill-opacity="1"/>
<rect x="104" y="242.667" width="17.3333" height="17.3333" rx="8.66667" fill="#414040" fill-opacity="1"/>
</svg>
