<svg width="18" height="18" viewBox="0 0 18 18" fill="none" xmlns="http://www.w3.org/2000/svg">
<g clip-path="url(#clip0_221_2358)">
<path d="M0.731689 8.25819C0.731689 4.36523 0.731689 2.41877 1.94555 1.20938C3.15942 0 5.11309 0 9.02047 0H9.7112C13.6186 0 15.5722 0 16.7861 1.20938C18 2.41877 18 4.36523 18 8.25819V8.94638C18 12.8393 18 14.7858 16.7861 15.9952C15.5722 17.2046 13.6186 17.2046 9.7112 17.2046H9.02047C5.11309 17.2046 3.15942 17.2046 1.94555 15.9952C0.731689 14.7858 0.731689 12.8393 0.731689 8.94638V8.25819Z" fill="#5F6264" fill-opacity="0.29"/>
<path d="M9.91986 12.3944C5.98413 12.3944 3.73929 9.70616 3.64575 5.23297H5.61722C5.68197 8.51618 7.13535 9.90688 8.28657 10.1936V5.23297H10.143V8.06456C11.2798 7.94269 12.4741 6.65235 12.877 5.23297H14.7334C14.424 6.9821 13.1289 8.27245 12.2079 8.80292C13.1289 9.23303 14.6039 10.3585 15.1651 12.3944H13.1217C12.6828 11.0323 11.5892 9.97857 10.143 9.83519V12.3944H9.91986Z" fill="white" fill-opacity="0.3"/>
</g>
<defs>
<clipPath id="clip0_221_2358">
<rect width="17.2683" height="17.2046" fill="white" transform="translate(0.731689)"/>
</clipPath>
</defs>
</svg>
