<svg width="19" height="18" viewBox="0 0 19 18" fill="none" xmlns="http://www.w3.org/2000/svg">
<path d="M9.50011 17.2046C14.2686 17.2046 18.1343 13.3532 18.1343 8.60229C18.1343 3.85137 14.2686 0 9.50011 0C4.73161 0 0.865967 3.85137 0.865967 8.60229C0.865967 13.3532 4.73161 17.2046 9.50011 17.2046Z" fill="#5F6264" fill-opacity="0.29"/>
<path d="M13.7024 4.94962L12.1611 12.695C12.1611 12.695 11.9452 13.2327 11.3516 12.9739L7.79344 10.2555L6.49832 9.63383L4.31954 8.90465C4.31954 8.90465 3.98564 8.78704 3.95192 8.5283C3.91819 8.26956 4.32966 8.13179 4.32966 8.13179L12.9908 4.748C12.9908 4.74464 13.7024 4.43214 13.7024 4.94962Z" fill="white" fill-opacity="0.3"/>
<path d="M7.51685 12.6077C7.51685 12.6077 7.4123 12.5976 7.28413 12.191C7.15597 11.7811 6.49829 9.63386 6.49829 9.63386L11.7294 6.32399C11.7294 6.32399 12.0329 6.14254 12.0194 6.32399C12.0194 6.32399 12.0734 6.3576 11.9115 6.50545C11.7496 6.65666 7.80353 10.1917 7.80353 10.1917" fill="#5F6264" fill-opacity="0.29"/>
<path d="M9.15603 11.2973L7.74961 12.5775C7.74961 12.5775 7.63831 12.6615 7.52026 12.6078L7.79008 10.2321" fill="#5F6264" fill-opacity="0.3"/>
</svg>
