<svg width="18" height="17" viewBox="0 0 18 17" fill="none" xmlns="http://www.w3.org/2000/svg">
<path d="M8.63415 0C3.86666 0 0 3.85167 0 8.60229C0 12.4031 2.47368 15.6275 5.90504 16.7651C6.33602 16.8447 6.47561 16.578 6.47561 16.3515V14.7501C4.07388 15.2705 3.57382 13.735 3.57382 13.735C3.18096 12.7407 2.61471 12.4762 2.61471 12.4762C1.83116 11.9421 2.67443 11.9536 2.67443 11.9536C3.54144 12.0138 3.99761 12.8403 3.99761 12.8403C4.76749 14.1551 6.01728 13.7751 6.51015 13.5551C6.58713 12.9995 6.8109 12.6196 7.05842 12.4052C5.14092 12.1866 3.12484 11.4489 3.12484 8.15353C3.12484 7.21373 3.46229 6.4467 4.01416 5.84454C3.92494 5.62733 3.62922 4.75205 4.09834 3.5678C4.09834 3.5678 4.82361 3.33697 6.47345 4.44953C7.16202 4.25885 7.90024 4.16351 8.63415 4.15992C9.36805 4.16351 10.107 4.25885 10.797 4.44953C12.4454 3.33697 13.1692 3.5678 13.1692 3.5678C13.6391 4.75276 13.3434 5.62805 13.2541 5.84454C13.8082 6.4467 14.1427 7.21445 14.1427 8.15353C14.1427 11.4575 12.1231 12.1851 10.2005 12.398C10.5099 12.6647 10.7927 13.188 10.7927 13.9909V16.3515C10.7927 16.5802 10.9308 16.849 11.369 16.7644C14.7975 15.6253 17.2683 12.4016 17.2683 8.60229C17.2683 3.85167 13.4024 0 8.63415 0Z" fill="#5F6264" fill-opacity="0.29"/>
</svg>
