<svg width="18" height="21" viewBox="0 0 18 21" fill="none" xmlns="http://www.w3.org/2000/svg">
<mask id="mask0_16_7585" style="mask-type:alpha" maskUnits="userSpaceOnUse" x="0" y="0" width="18" height="21">
<path fill-rule="evenodd" clip-rule="evenodd" d="M2.50037 17V8.875H3.56287V17C3.56287 17.3452 3.80071 17.625 4.09412 17.625H13.6566C13.95 17.625 14.1879 17.3452 14.1879 17V8.875H15.2504V17C15.2504 18.0355 14.5368 18.875 13.6566 18.875H4.09412C3.21391 18.875 2.50037 18.0355 2.50037 17Z" fill="black"/>
<path fill-rule="evenodd" clip-rule="evenodd" d="M14.1879 3.25V7.625L12.0629 5.125V3.25C12.0629 2.90482 12.3007 2.625 12.5941 2.625H13.6566C13.95 2.625 14.1879 2.90482 14.1879 3.25Z" fill="black"/>
<path fill-rule="evenodd" clip-rule="evenodd" d="M8.12407 2C8.539 1.51184 9.21174 1.51184 9.62667 2L16.6885 10.3081C16.896 10.5521 16.896 10.9479 16.6885 11.1919C16.4811 11.436 16.1447 11.436 15.9372 11.1919L8.87537 2.88388L1.81352 11.1919C1.60605 11.436 1.26968 11.436 1.06222 11.1919C0.85475 10.9479 0.85475 10.5521 1.06222 10.3081L8.12407 2Z" fill="black"/>
</mask>
<g mask="url(#mask0_16_7585)">
<rect x="0.375366" y="0.125" width="17" height="20" fill="white"/>
</g>
</svg>
