<svg width="24" height="24" viewBox="0 0 24 24" fill="none" xmlns="http://www.w3.org/2000/svg">
<path d="M12 24C18.6274 24 24 18.6274 24 12C24 5.37258 18.6274 0 12 0C5.37258 0 0 5.37258 0 12C0 18.6274 5.37258 24 12 24Z" fill="#40B3E0"/>
<path d="M17.8406 6.90468L15.6984 17.7094C15.6984 17.7094 15.3984 18.4594 14.5734 18.0984L9.62811 14.3062L7.82811 13.4391L4.79999 12.4219C4.79999 12.4219 4.33592 12.2578 4.28905 11.8969C4.24217 11.5359 4.81405 11.3437 4.81405 11.3437L16.8515 6.62343C16.8515 6.61874 17.8406 6.1828 17.8406 6.90468Z" fill="white"/>
<path d="M9.24375 17.5875C9.24375 17.5875 9.09844 17.5734 8.92031 17.0063C8.74219 16.4344 7.82812 13.4391 7.82812 13.4391L15.0984 8.82188C15.0984 8.82188 15.5203 8.56876 15.5016 8.82188C15.5016 8.82188 15.5766 8.86876 15.3516 9.07501C15.1266 9.28594 9.64219 14.2172 9.64219 14.2172" fill="#D2E5F1"/>
<path d="M11.5219 15.7594L9.56716 17.5453C9.56716 17.5453 9.41248 17.6625 9.24841 17.5875L9.62341 14.2734" fill="#B5CFE4"/>
</svg>
