<svg width="45" height="45" viewBox="0 0 45 45" fill="none" xmlns="http://www.w3.org/2000/svg">
<path d="M22.4307 0.0568237L0.149231 7.4905L3.6703 35.1648L22.4543 44.952L41.3353 35.0322L44.855 7.35885L22.4307 0.0568237Z" fill="#B3B3B3"/>
<path d="M42.6326 8.95827L22.3787 2.41063V42.6137L39.3523 33.7082L42.6326 8.95827Z" fill="#A6120D"/>
<path d="M2.64954 9.07625L5.66682 33.8265L22.3783 42.6137V2.40996L2.64954 9.07625Z" fill="#DD1B16"/>
<path d="M27.9539 23.8126L22.3787 26.2842H16.5025L13.7403 32.834L8.60254 32.924L22.3787 3.87056L27.9539 23.8128V23.8126ZM27.415 22.5683L22.4158 13.1859L18.315 22.4068H22.3785L27.415 22.5685V22.5683Z" fill="#F2F2F2"/>
<path d="M22.3785 3.87039L22.4155 13.1859L27.0684 22.414H22.3891L22.3785 26.2782L28.849 26.2841L31.8732 32.925L36.7893 33.0113L22.3785 3.87039Z" fill="#B3B3B3"/>
</svg>
