<svg width="46" height="33" viewBox="0 0 46 33" fill="none" xmlns="http://www.w3.org/2000/svg">
<path d="M1.34533 18.4823L13.3139 24.6089C13.6233 24.7666 13.9527 24.8466 14.2932 24.8466C14.7368 24.8466 15.1692 24.7079 15.545 24.4448C16.218 23.9713 16.62 23.1646 16.62 22.2866V22.2194C16.62 21.2269 16.0916 20.3155 15.2737 19.8974L7.78817 16.069L15.2737 12.24C16.0916 11.8215 16.62 10.9103 16.62 9.91835V9.85173C16.62 8.9725 16.218 8.16533 15.545 7.69355C15.173 7.43187 14.7395 7.29341 14.2919 7.29341C13.9544 7.29341 13.6159 7.37507 13.3129 7.53003L1.34514 13.656C0.528001 14.0745 5.11492e-08 14.9861 5.11492e-08 15.9777V16.1608C-0.000189673 17.151 0.527432 18.0621 1.34533 18.4823Z" fill="#FF5370"/>
<path d="M16.7267 30.961C17.1633 31.6187 17.8654 32.0115 18.605 32.0115H18.6649C19.6803 32.0115 20.5699 31.296 20.8794 30.2328L28.7634 3.3421C28.9895 2.56604 28.8641 1.70937 28.4274 1.05048C27.9908 0.392623 27.2886 0 26.5489 0H26.4891C25.4734 0 24.5828 0.715282 24.2734 1.7785L16.3886 28.6713C16.1642 29.4484 16.2905 30.3038 16.7267 30.961Z" fill="#FF5370"/>
<path d="M28.5338 9.91814C28.5338 10.9091 29.0618 11.8205 29.8798 12.2411L37.3654 16.069L29.8798 19.897C29.0621 20.3155 28.5338 21.2269 28.5338 22.2189V22.2862C28.5338 23.1644 28.9354 23.9711 29.6091 24.4448C29.9836 24.7075 30.4162 24.8466 30.8603 24.8466C31.2005 24.8466 31.5297 24.7666 31.8412 24.6081L43.809 18.4817C44.6261 18.0621 45.1541 17.151 45.1541 16.1604V15.9773C45.1541 14.9857 44.6261 14.0741 43.8082 13.6556L31.8405 7.52961C31.5386 7.37507 31.2005 7.29341 30.863 7.29341C30.4162 7.29341 29.9821 7.43146 29.6101 7.69272C28.9363 8.16533 28.5343 8.97229 28.5343 9.85152V9.91793H28.5338V9.91814Z" fill="#FF5370"/>
</svg>
