<svg width="45" height="46" viewBox="0 0 45 46" fill="none" xmlns="http://www.w3.org/2000/svg">
<g clip-path="url(#clip0_25_7181)">
<path d="M0 0.723267H45V45.5572H0V0.723267Z" fill="#222222"/>
<path d="M22.4652 26.8621C24.5435 26.8621 26.2283 25.1836 26.2283 23.113C26.2283 21.0424 24.5435 19.3638 22.4652 19.3638C20.3869 19.3638 18.7021 21.0424 18.7021 23.113C18.7021 25.1836 20.3869 26.8621 22.4652 26.8621Z" fill="#00D8FF"/>
<path d="M22.4652 15.4907C27.5166 15.4907 32.2098 16.2131 35.7478 17.426C40.0108 18.888 42.6322 21.1046 42.6322 23.1117C42.6322 25.2031 39.8541 27.5585 35.2765 29.0688C31.8156 30.2111 27.2604 30.8083 22.4652 30.8083C17.5481 30.8083 12.8934 30.2483 9.39271 29.0564C4.96434 27.5486 2.29688 25.1635 2.29688 23.1117C2.29688 21.1207 4.80019 18.9215 9.00347 17.462C12.5551 16.2292 17.364 15.4907 22.4652 15.4907V15.4907Z" stroke="#00D8FF" stroke-width="1.80002" stroke-miterlimit="10"/>
<path d="M16.3673 19.6567C18.8905 15.2967 21.8639 11.607 24.6868 9.16001C28.088 6.21123 31.3251 5.05649 33.0698 6.05883C34.8879 7.1033 35.5482 10.6778 34.5745 15.3847C33.8383 18.943 32.0824 23.1717 29.686 27.3112C27.23 31.5547 24.417 35.2927 21.6326 37.7186C18.1096 40.7876 14.7022 41.8977 12.9189 40.8731C11.1878 39.8782 10.5263 36.6197 11.3557 32.2621C12.0571 28.5774 13.818 24.0588 16.3673 19.6567V19.6567Z" stroke="#00D8FF" stroke-width="1.80002" stroke-miterlimit="10"/>
<path d="M15.8121 26.9873C13.2814 22.631 11.5578 18.2227 10.839 14.564C9.97347 10.1557 10.5853 6.78439 12.3288 5.77957C14.1457 4.73139 17.5829 5.94683 21.1893 9.13722C23.9164 11.5495 26.7157 15.1773 29.1183 19.313C31.5818 23.5528 33.4285 27.8471 34.1461 31.4613C35.0551 36.0356 34.3189 39.5308 32.5369 40.5579C30.8071 41.5553 27.6434 40.4997 24.2684 37.6066C21.4181 35.1621 18.3676 31.3857 15.8121 26.9873Z" stroke="#00D8FF" stroke-width="1.80002" stroke-miterlimit="10"/>
</g>
<defs>
<clipPath id="clip0_25_7181">
<rect y="0.723267" width="45" height="44.834" rx="5" fill="white"/>
</clipPath>
</defs>
</svg>
