<svg width="45" height="45" viewBox="0 0 45 45" fill="none" xmlns="http://www.w3.org/2000/svg">
<g clip-path="url(#clip0_25_7164)">
<path d="M0 22.417V5C0 2.23857 2.23858 0 5 0H40C42.7614 0 45 2.23858 45 5V39.834C45 42.5954 42.7614 44.834 40 44.834H0" fill="#007ACC"/>
<path d="M9.86627 22.4954V24.3224H15.7163V40.911H19.8675V24.3224H25.7175V22.5291C25.7175 21.5203 25.7175 20.7021 25.6725 20.6797C25.6725 20.646 22.1063 20.6348 17.775 20.6348L9.90002 20.6685V22.5066L9.86627 22.4954ZM36.1575 20.6236C37.305 20.8926 38.1825 21.4082 38.97 22.2264C39.3863 22.6748 40.005 23.4594 40.05 23.6611C40.05 23.7284 38.1038 25.0398 36.9225 25.7683C36.8775 25.8019 36.6975 25.6114 36.5175 25.32C35.9325 24.4905 35.3363 24.1319 34.4025 24.0646C33.0525 23.975 32.1525 24.6811 32.1525 25.858C32.1525 26.2167 32.22 26.4184 32.355 26.7098C32.6588 27.3263 33.2213 27.6962 34.965 28.4584C38.1825 29.837 39.5775 30.7449 40.4213 32.0451C41.3775 33.5022 41.5913 35.7887 40.95 37.5036C40.23 39.3754 38.475 40.642 35.9663 41.0567C35.1788 41.1912 33.3788 41.1688 32.535 41.0231C30.735 40.6868 29.0138 39.7901 27.9563 38.6357C27.54 38.1873 26.7413 36.988 26.7863 36.9096L27.2138 36.6405L28.9013 35.6654L30.1725 34.9257L30.465 35.3179C30.8363 35.9008 31.6688 36.6854 32.1525 36.9544C33.615 37.7054 35.5725 37.6045 36.54 36.7302C36.9563 36.3491 37.1363 35.9456 37.1363 35.3852C37.1363 34.8696 37.0575 34.6342 36.7988 34.2419C36.4388 33.7488 35.7188 33.3453 33.6938 32.4486C31.365 31.4622 30.375 30.8346 29.4525 29.8706C28.9238 29.2878 28.44 28.3799 28.215 27.6289C28.0463 26.9788 27.99 25.3872 28.1475 24.7483C28.6313 22.5066 30.33 20.9375 32.76 20.4891C33.5475 20.3322 35.4038 20.3995 36.18 20.6012L36.1575 20.6236Z" fill="white"/>
</g>
<defs>
<clipPath id="clip0_25_7164">
<rect width="45" height="44.834" rx="5" fill="white"/>
</clipPath>
</defs>
</svg>
